<mxfile host="app.diagrams.net" modified="2023-09-13T16:59:15.998Z" agent="Mozilla/5.0 (Windows NT 10.0; Win64; x64) AppleWebKit/537.36 (KHTML, like Gecko) Chrome/116.0.0.0 Safari/537.36" etag="qGfHhcQveRLpQp8AEdMJ" version="21.7.4" type="github">
  <diagram name="Page-1" id="aVT4Y82luFDuPr_OkI-w">
    <mxGraphModel dx="2303" dy="1430" grid="1" gridSize="10" guides="1" tooltips="1" connect="1" arrows="1" fold="1" page="1" pageScale="1" pageWidth="1169" pageHeight="827" math="0" shadow="0">
      <root>
        <mxCell id="0" />
        <mxCell id="1" parent="0" />
        <mxCell id="FJ48f_If2C-RZeaWeFUs-1" value="User" style="whiteSpace=wrap;html=1;align=center;" vertex="1" parent="1">
          <mxGeometry x="-880" y="-610" width="100" height="40" as="geometry" />
        </mxCell>
        <mxCell id="FJ48f_If2C-RZeaWeFUs-6" value="Chat" style="whiteSpace=wrap;html=1;align=center;" vertex="1" parent="1">
          <mxGeometry x="-300" y="-610" width="100" height="40" as="geometry" />
        </mxCell>
        <mxCell id="FJ48f_If2C-RZeaWeFUs-7" value="Group Chat" style="whiteSpace=wrap;html=1;align=center;" vertex="1" parent="1">
          <mxGeometry x="-580" y="-390" width="100" height="40" as="geometry" />
        </mxCell>
        <mxCell id="FJ48f_If2C-RZeaWeFUs-8" value="Blocked User" style="whiteSpace=wrap;html=1;align=center;" vertex="1" parent="1">
          <mxGeometry x="-1010" y="-460" width="100" height="40" as="geometry" />
        </mxCell>
        <mxCell id="FJ48f_If2C-RZeaWeFUs-11" value="chat name" style="ellipse;whiteSpace=wrap;html=1;align=center;" vertex="1" parent="1">
          <mxGeometry x="-120" y="-560" width="100" height="40" as="geometry" />
        </mxCell>
        <mxCell id="FJ48f_If2C-RZeaWeFUs-13" value="username" style="ellipse;whiteSpace=wrap;html=1;align=center;" vertex="1" parent="1">
          <mxGeometry x="-1070" y="-670" width="100" height="40" as="geometry" />
        </mxCell>
        <mxCell id="FJ48f_If2C-RZeaWeFUs-14" value="date of birth" style="ellipse;whiteSpace=wrap;html=1;align=center;" vertex="1" parent="1">
          <mxGeometry x="-680" y="-730" width="100" height="40" as="geometry" />
        </mxCell>
        <mxCell id="FJ48f_If2C-RZeaWeFUs-15" value="email" style="ellipse;whiteSpace=wrap;html=1;align=center;" vertex="1" parent="1">
          <mxGeometry x="-900" y="-760" width="100" height="40" as="geometry" />
        </mxCell>
        <mxCell id="FJ48f_If2C-RZeaWeFUs-16" value="password" style="ellipse;whiteSpace=wrap;html=1;align=center;" vertex="1" parent="1">
          <mxGeometry x="-780" y="-750" width="100" height="40" as="geometry" />
        </mxCell>
        <mxCell id="FJ48f_If2C-RZeaWeFUs-17" value="" style="endArrow=none;html=1;rounded=0;exitX=1;exitY=0.5;exitDx=0;exitDy=0;entryX=0.5;entryY=0;entryDx=0;entryDy=0;" edge="1" parent="1" source="FJ48f_If2C-RZeaWeFUs-13" target="FJ48f_If2C-RZeaWeFUs-1">
          <mxGeometry relative="1" as="geometry">
            <mxPoint x="260" y="130" as="sourcePoint" />
            <mxPoint x="420" y="130" as="targetPoint" />
            <Array as="points" />
          </mxGeometry>
        </mxCell>
        <mxCell id="FJ48f_If2C-RZeaWeFUs-19" value="" style="endArrow=none;html=1;rounded=0;entryX=0;entryY=0.5;entryDx=0;entryDy=0;exitX=1;exitY=0.5;exitDx=0;exitDy=0;" edge="1" parent="1" source="FJ48f_If2C-RZeaWeFUs-2" target="FJ48f_If2C-RZeaWeFUs-32">
          <mxGeometry relative="1" as="geometry">
            <mxPoint x="230" y="190" as="sourcePoint" />
            <mxPoint x="610" y="219" as="targetPoint" />
            <Array as="points" />
          </mxGeometry>
        </mxCell>
        <mxCell id="FJ48f_If2C-RZeaWeFUs-20" value="" style="endArrow=none;html=1;rounded=0;" edge="1" parent="1" source="FJ48f_If2C-RZeaWeFUs-11">
          <mxGeometry relative="1" as="geometry">
            <mxPoint x="170" y="219" as="sourcePoint" />
            <mxPoint x="-200" y="-590" as="targetPoint" />
          </mxGeometry>
        </mxCell>
        <mxCell id="FJ48f_If2C-RZeaWeFUs-21" value="" style="endArrow=none;html=1;rounded=0;exitX=1;exitY=0.5;exitDx=0;exitDy=0;" edge="1" parent="1" source="FJ48f_If2C-RZeaWeFUs-2" target="FJ48f_If2C-RZeaWeFUs-12">
          <mxGeometry relative="1" as="geometry">
            <mxPoint x="490" y="190" as="sourcePoint" />
            <mxPoint x="650" y="190" as="targetPoint" />
          </mxGeometry>
        </mxCell>
        <mxCell id="FJ48f_If2C-RZeaWeFUs-22" value="" style="endArrow=none;html=1;rounded=0;entryX=0.607;entryY=0.983;entryDx=0;entryDy=0;entryPerimeter=0;" edge="1" parent="1" target="FJ48f_If2C-RZeaWeFUs-15">
          <mxGeometry relative="1" as="geometry">
            <mxPoint x="-830" y="-610" as="sourcePoint" />
            <mxPoint x="400" y="99.5" as="targetPoint" />
          </mxGeometry>
        </mxCell>
        <mxCell id="FJ48f_If2C-RZeaWeFUs-23" value="" style="endArrow=none;html=1;rounded=0;entryX=0.38;entryY=0.95;entryDx=0;entryDy=0;entryPerimeter=0;exitX=0.5;exitY=0;exitDx=0;exitDy=0;" edge="1" parent="1" source="FJ48f_If2C-RZeaWeFUs-1" target="FJ48f_If2C-RZeaWeFUs-16">
          <mxGeometry relative="1" as="geometry">
            <mxPoint x="380" y="160" as="sourcePoint" />
            <mxPoint x="460" y="100" as="targetPoint" />
          </mxGeometry>
        </mxCell>
        <mxCell id="FJ48f_If2C-RZeaWeFUs-24" value="" style="endArrow=none;html=1;rounded=0;exitX=0.5;exitY=0;exitDx=0;exitDy=0;entryX=0;entryY=1;entryDx=0;entryDy=0;" edge="1" parent="1" source="FJ48f_If2C-RZeaWeFUs-1" target="FJ48f_If2C-RZeaWeFUs-14">
          <mxGeometry relative="1" as="geometry">
            <mxPoint x="370" y="119.5" as="sourcePoint" />
            <mxPoint x="-30" y="-70" as="targetPoint" />
          </mxGeometry>
        </mxCell>
        <mxCell id="FJ48f_If2C-RZeaWeFUs-25" value="" style="endArrow=none;html=1;rounded=0;entryX=0.5;entryY=0;entryDx=0;entryDy=0;" edge="1" parent="1" source="FJ48f_If2C-RZeaWeFUs-26" target="FJ48f_If2C-RZeaWeFUs-1">
          <mxGeometry relative="1" as="geometry">
            <mxPoint x="310" y="70" as="sourcePoint" />
            <mxPoint x="460" y="80" as="targetPoint" />
            <Array as="points" />
          </mxGeometry>
        </mxCell>
        <mxCell id="FJ48f_If2C-RZeaWeFUs-26" value="userID" style="ellipse;whiteSpace=wrap;html=1;align=center;fontStyle=4;" vertex="1" parent="1">
          <mxGeometry x="-1010" y="-735" width="100" height="50" as="geometry" />
        </mxCell>
        <mxCell id="FJ48f_If2C-RZeaWeFUs-27" value="userID" style="ellipse;whiteSpace=wrap;html=1;align=center;" vertex="1" parent="1">
          <mxGeometry x="-580" y="-280" width="100" height="40" as="geometry" />
        </mxCell>
        <mxCell id="FJ48f_If2C-RZeaWeFUs-28" value="messageID" style="ellipse;whiteSpace=wrap;html=1;align=center;" vertex="1" parent="1">
          <mxGeometry x="-470" y="-310" width="100" height="40" as="geometry" />
        </mxCell>
        <mxCell id="FJ48f_If2C-RZeaWeFUs-29" value="userID" style="ellipse;whiteSpace=wrap;html=1;align=center;" vertex="1" parent="1">
          <mxGeometry x="-1140" y="-380" width="100" height="40" as="geometry" />
        </mxCell>
        <mxCell id="FJ48f_If2C-RZeaWeFUs-30" value="userID" style="ellipse;whiteSpace=wrap;html=1;align=center;" vertex="1" parent="1">
          <mxGeometry x="-1090" y="-320" width="100" height="40" as="geometry" />
        </mxCell>
        <mxCell id="FJ48f_If2C-RZeaWeFUs-31" value="msg" style="ellipse;whiteSpace=wrap;html=1;align=center;" vertex="1" parent="1">
          <mxGeometry x="-220" y="-280" width="100" height="40" as="geometry" />
        </mxCell>
        <mxCell id="FJ48f_If2C-RZeaWeFUs-32" value="incomingID" style="ellipse;whiteSpace=wrap;html=1;align=center;" vertex="1" parent="1">
          <mxGeometry x="-150" y="-380" width="100" height="40" as="geometry" />
        </mxCell>
        <mxCell id="FJ48f_If2C-RZeaWeFUs-33" value="chat type" style="ellipse;whiteSpace=wrap;html=1;align=center;" vertex="1" parent="1">
          <mxGeometry x="-120" y="-660" width="100" height="40" as="geometry" />
        </mxCell>
        <mxCell id="FJ48f_If2C-RZeaWeFUs-34" value="creation date" style="ellipse;whiteSpace=wrap;html=1;align=center;" vertex="1" parent="1">
          <mxGeometry x="-120" y="-610" width="100" height="40" as="geometry" />
        </mxCell>
        <mxCell id="FJ48f_If2C-RZeaWeFUs-37" value="" style="endArrow=none;html=1;rounded=0;exitX=0.5;exitY=0;exitDx=0;exitDy=0;entryX=0.5;entryY=1;entryDx=0;entryDy=0;" edge="1" parent="1" source="FJ48f_If2C-RZeaWeFUs-50" target="FJ48f_If2C-RZeaWeFUs-7">
          <mxGeometry relative="1" as="geometry">
            <mxPoint x="440" y="409.5" as="sourcePoint" />
            <mxPoint x="590" y="430" as="targetPoint" />
          </mxGeometry>
        </mxCell>
        <mxCell id="FJ48f_If2C-RZeaWeFUs-38" value="" style="endArrow=none;html=1;rounded=0;entryX=1;entryY=0.5;entryDx=0;entryDy=0;" edge="1" parent="1" source="FJ48f_If2C-RZeaWeFUs-12" target="FJ48f_If2C-RZeaWeFUs-2">
          <mxGeometry relative="1" as="geometry">
            <mxPoint x="430" y="270" as="sourcePoint" />
            <mxPoint x="590" y="270" as="targetPoint" />
          </mxGeometry>
        </mxCell>
        <mxCell id="FJ48f_If2C-RZeaWeFUs-39" value="" style="endArrow=none;html=1;rounded=0;entryX=0.5;entryY=1;entryDx=0;entryDy=0;" edge="1" parent="1" source="FJ48f_If2C-RZeaWeFUs-51" target="FJ48f_If2C-RZeaWeFUs-8">
          <mxGeometry relative="1" as="geometry">
            <mxPoint x="90" y="370" as="sourcePoint" />
            <mxPoint x="250" y="370" as="targetPoint" />
          </mxGeometry>
        </mxCell>
        <mxCell id="FJ48f_If2C-RZeaWeFUs-40" value="" style="endArrow=none;html=1;rounded=0;exitX=0;exitY=0.5;exitDx=0;exitDy=0;entryX=1;entryY=0.5;entryDx=0;entryDy=0;" edge="1" parent="1" source="FJ48f_If2C-RZeaWeFUs-48" target="FJ48f_If2C-RZeaWeFUs-6">
          <mxGeometry relative="1" as="geometry">
            <mxPoint x="220" y="200" as="sourcePoint" />
            <mxPoint x="-250" y="210" as="targetPoint" />
          </mxGeometry>
        </mxCell>
        <mxCell id="FJ48f_If2C-RZeaWeFUs-41" value="" style="endArrow=none;html=1;rounded=0;entryX=0.5;entryY=1;entryDx=0;entryDy=0;" edge="1" parent="1" source="FJ48f_If2C-RZeaWeFUs-27" target="FJ48f_If2C-RZeaWeFUs-7">
          <mxGeometry relative="1" as="geometry">
            <mxPoint x="400" y="450" as="sourcePoint" />
            <mxPoint x="560" y="450" as="targetPoint" />
          </mxGeometry>
        </mxCell>
        <mxCell id="FJ48f_If2C-RZeaWeFUs-42" value="" style="endArrow=none;html=1;rounded=0;exitX=0.5;exitY=1;exitDx=0;exitDy=0;" edge="1" parent="1" source="FJ48f_If2C-RZeaWeFUs-7" target="FJ48f_If2C-RZeaWeFUs-28">
          <mxGeometry relative="1" as="geometry">
            <mxPoint x="580" y="420" as="sourcePoint" />
            <mxPoint x="730" y="439" as="targetPoint" />
          </mxGeometry>
        </mxCell>
        <mxCell id="FJ48f_If2C-RZeaWeFUs-43" value="" style="endArrow=none;html=1;rounded=0;exitX=0.5;exitY=1;exitDx=0;exitDy=0;entryX=0.6;entryY=0;entryDx=0;entryDy=0;entryPerimeter=0;" edge="1" parent="1" source="FJ48f_If2C-RZeaWeFUs-8" target="FJ48f_If2C-RZeaWeFUs-29">
          <mxGeometry relative="1" as="geometry">
            <mxPoint x="-50" y="430" as="sourcePoint" />
            <mxPoint x="-1070" y="-380" as="targetPoint" />
          </mxGeometry>
        </mxCell>
        <mxCell id="FJ48f_If2C-RZeaWeFUs-44" value="" style="endArrow=none;html=1;rounded=0;entryX=0.5;entryY=1;entryDx=0;entryDy=0;" edge="1" parent="1" source="FJ48f_If2C-RZeaWeFUs-30" target="FJ48f_If2C-RZeaWeFUs-8">
          <mxGeometry relative="1" as="geometry">
            <mxPoint x="100" y="460" as="sourcePoint" />
            <mxPoint x="260" y="460" as="targetPoint" />
          </mxGeometry>
        </mxCell>
        <mxCell id="FJ48f_If2C-RZeaWeFUs-45" value="" style="endArrow=none;html=1;rounded=0;exitX=0;exitY=0.5;exitDx=0;exitDy=0;" edge="1" parent="1" source="FJ48f_If2C-RZeaWeFUs-34">
          <mxGeometry relative="1" as="geometry">
            <mxPoint x="180" y="210" as="sourcePoint" />
            <mxPoint x="-200" y="-590" as="targetPoint" />
          </mxGeometry>
        </mxCell>
        <mxCell id="FJ48f_If2C-RZeaWeFUs-46" value="" style="endArrow=none;html=1;rounded=0;exitX=0;exitY=0.5;exitDx=0;exitDy=0;entryX=1;entryY=0.5;entryDx=0;entryDy=0;" edge="1" parent="1" source="FJ48f_If2C-RZeaWeFUs-33" target="FJ48f_If2C-RZeaWeFUs-6">
          <mxGeometry relative="1" as="geometry">
            <mxPoint x="50" y="259" as="sourcePoint" />
            <mxPoint x="180" y="260" as="targetPoint" />
            <Array as="points" />
          </mxGeometry>
        </mxCell>
        <mxCell id="FJ48f_If2C-RZeaWeFUs-47" value="" style="endArrow=none;html=1;rounded=0;exitX=1;exitY=0.5;exitDx=0;exitDy=0;" edge="1" parent="1" source="FJ48f_If2C-RZeaWeFUs-2" target="FJ48f_If2C-RZeaWeFUs-31">
          <mxGeometry relative="1" as="geometry">
            <mxPoint x="600" y="260" as="sourcePoint" />
            <mxPoint x="790" y="260" as="targetPoint" />
          </mxGeometry>
        </mxCell>
        <mxCell id="FJ48f_If2C-RZeaWeFUs-48" value="charId" style="ellipse;whiteSpace=wrap;html=1;align=center;fontStyle=4;" vertex="1" parent="1">
          <mxGeometry x="-120" y="-710" width="100" height="40" as="geometry" />
        </mxCell>
        <mxCell id="FJ48f_If2C-RZeaWeFUs-49" value="messageID" style="ellipse;whiteSpace=wrap;html=1;align=center;fontStyle=4;" vertex="1" parent="1">
          <mxGeometry x="-140" y="-433" width="100" height="40" as="geometry" />
        </mxCell>
        <mxCell id="FJ48f_If2C-RZeaWeFUs-50" value="groupID" style="ellipse;whiteSpace=wrap;html=1;align=center;fontStyle=4;" vertex="1" parent="1">
          <mxGeometry x="-680" y="-310" width="100" height="40" as="geometry" />
        </mxCell>
        <mxCell id="FJ48f_If2C-RZeaWeFUs-51" value="blockID" style="ellipse;whiteSpace=wrap;html=1;align=center;fontStyle=4;" vertex="1" parent="1">
          <mxGeometry x="-980" y="-350" width="100" height="40" as="geometry" />
        </mxCell>
        <mxCell id="FJ48f_If2C-RZeaWeFUs-56" value="" style="edgeStyle=entityRelationEdgeStyle;fontSize=12;html=1;endArrow=ERmany;startArrow=ERmany;rounded=0;exitX=1;exitY=0.5;exitDx=0;exitDy=0;" edge="1" parent="1" source="FJ48f_If2C-RZeaWeFUs-1" target="FJ48f_If2C-RZeaWeFUs-57">
          <mxGeometry width="100" height="100" relative="1" as="geometry">
            <mxPoint x="30" y="100" as="sourcePoint" />
            <mxPoint x="130" as="targetPoint" />
            <Array as="points">
              <mxPoint x="70" y="60" />
              <mxPoint x="-20" y="30" />
              <mxPoint x="-120" y="-20" />
            </Array>
          </mxGeometry>
        </mxCell>
        <mxCell id="FJ48f_If2C-RZeaWeFUs-57" value="have" style="shape=rhombus;perimeter=rhombusPerimeter;whiteSpace=wrap;html=1;align=center;" vertex="1" parent="1">
          <mxGeometry x="-590" y="-620.0000000000002" width="120" height="60" as="geometry" />
        </mxCell>
        <mxCell id="FJ48f_If2C-RZeaWeFUs-58" value="" style="edgeStyle=entityRelationEdgeStyle;fontSize=12;html=1;endArrow=ERmany;startArrow=ERmany;rounded=0;exitX=1;exitY=0.5;exitDx=0;exitDy=0;entryX=0;entryY=0.5;entryDx=0;entryDy=0;" edge="1" parent="1" source="FJ48f_If2C-RZeaWeFUs-57" target="FJ48f_If2C-RZeaWeFUs-6">
          <mxGeometry width="100" height="100" relative="1" as="geometry">
            <mxPoint x="30" y="100" as="sourcePoint" />
            <mxPoint x="130" as="targetPoint" />
          </mxGeometry>
        </mxCell>
        <mxCell id="FJ48f_If2C-RZeaWeFUs-62" value="" style="fontSize=12;html=1;endArrow=ERoneToMany;rounded=0;exitX=0.5;exitY=1;exitDx=0;exitDy=0;" edge="1" parent="1" source="FJ48f_If2C-RZeaWeFUs-2">
          <mxGeometry width="100" height="100" relative="1" as="geometry">
            <mxPoint x="-110" y="220" as="sourcePoint" />
            <mxPoint x="-250" y="-370" as="targetPoint" />
          </mxGeometry>
        </mxCell>
        <mxCell id="FJ48f_If2C-RZeaWeFUs-63" value="" style="fontSize=12;html=1;endArrow=ERoneToMany;rounded=0;entryX=0.5;entryY=0;entryDx=0;entryDy=0;exitX=0.5;exitY=1;exitDx=0;exitDy=0;" edge="1" parent="1" source="FJ48f_If2C-RZeaWeFUs-1" target="FJ48f_If2C-RZeaWeFUs-8">
          <mxGeometry width="100" height="100" relative="1" as="geometry">
            <mxPoint x="-220" y="90" as="sourcePoint" />
            <mxPoint x="-120" y="-10" as="targetPoint" />
          </mxGeometry>
        </mxCell>
        <mxCell id="FJ48f_If2C-RZeaWeFUs-65" value="" style="fontSize=12;html=1;endArrow=ERmany;startArrow=ERmany;rounded=0;entryX=0.5;entryY=1;entryDx=0;entryDy=0;exitX=0.5;exitY=0;exitDx=0;exitDy=0;" edge="1" parent="1" source="FJ48f_If2C-RZeaWeFUs-7" target="FJ48f_If2C-RZeaWeFUs-57">
          <mxGeometry width="100" height="100" relative="1" as="geometry">
            <mxPoint x="140" y="270" as="sourcePoint" />
            <mxPoint x="240" y="170" as="targetPoint" />
            <Array as="points" />
          </mxGeometry>
        </mxCell>
        <mxCell id="FJ48f_If2C-RZeaWeFUs-66" value="" style="fontSize=12;html=1;endArrow=ERmany;rounded=0;entryX=0;entryY=0.5;entryDx=0;entryDy=0;exitX=1;exitY=0.5;exitDx=0;exitDy=0;" edge="1" parent="1" source="FJ48f_If2C-RZeaWeFUs-7" target="FJ48f_If2C-RZeaWeFUs-2">
          <mxGeometry width="100" height="100" relative="1" as="geometry">
            <mxPoint x="-410" y="-60" as="sourcePoint" />
            <mxPoint x="150" y="120" as="targetPoint" />
          </mxGeometry>
        </mxCell>
        <mxCell id="IqZqBNjcqPyaUJuDp_xU-3" value="" style="fontSize=12;html=1;endArrow=ERoneToMany;rounded=0;exitX=0.5;exitY=1;exitDx=0;exitDy=0;" edge="1" parent="1" source="FJ48f_If2C-RZeaWeFUs-6" target="FJ48f_If2C-RZeaWeFUs-2">
          <mxGeometry width="100" height="100" relative="1" as="geometry">
            <mxPoint x="-250" y="-570" as="sourcePoint" />
            <mxPoint x="-250" y="-370" as="targetPoint" />
          </mxGeometry>
        </mxCell>
        <mxCell id="FJ48f_If2C-RZeaWeFUs-2" value="Message" style="whiteSpace=wrap;html=1;align=center;" vertex="1" parent="1">
          <mxGeometry x="-300" y="-390" width="100" height="40" as="geometry" />
        </mxCell>
        <mxCell id="IqZqBNjcqPyaUJuDp_xU-4" value="" style="endArrow=none;html=1;rounded=0;" edge="1" parent="1" source="FJ48f_If2C-RZeaWeFUs-49">
          <mxGeometry relative="1" as="geometry">
            <mxPoint x="407" y="102" as="sourcePoint" />
            <mxPoint x="-200" y="-370" as="targetPoint" />
          </mxGeometry>
        </mxCell>
        <mxCell id="FJ48f_If2C-RZeaWeFUs-12" value="outgoingID" style="ellipse;whiteSpace=wrap;html=1;align=center;" vertex="1" parent="1">
          <mxGeometry x="-170" y="-330" width="100" height="40" as="geometry" />
        </mxCell>
      </root>
    </mxGraphModel>
  </diagram>
</mxfile>
